<svg width="24" height="24" viewBox="0 0 24 24" fill="none" xmlns="http://www.w3.org/2000/svg">
<g clip-path="url(#clip0_275_682)">
<path d="M19 20C19 17.6427 15.8663 15.7333 12 15.7333C8.13367 15.7333 5 17.6427 5 20M12 12.5333C10.7623 12.5333 9.57534 12.0838 8.70017 11.2837C7.825 10.4835 7.33333 9.39826 7.33333 8.26667C7.33333 7.13508 7.825 6.04983 8.70017 5.24968C9.57534 4.44952 10.7623 4 12 4C13.2377 4 14.4247 4.44952 15.2998 5.24968C16.175 6.04983 16.6667 7.13508 16.6667 8.26667C16.6667 9.39826 16.175 10.4835 15.2998 11.2837C14.4247 12.0838 13.2377 12.5333 12 12.5333Z" stroke="#525252" stroke-width="1.5" stroke-linecap="round" stroke-linejoin="round"/>
</g>
<defs>
<clipPath id="clip0_275_682">
<rect width="24" height="24" fill="white"/>
</clipPath>
</defs>
</svg>
