<svg width="130" height="56" viewBox="0 0 130 56" fill="none" xmlns="http://www.w3.org/2000/svg">
<mask id="mask0_443_1344" style="mask-type:luminance" maskUnits="userSpaceOnUse" x="0" y="17" width="23" height="39">
<path d="M0 17.9082H22.6503V55.1607H0V17.9082Z" fill="white"/>
</mask>
<g mask="url(#mask0_443_1344)">
<mask id="mask1_443_1344" style="mask-type:luminance" maskUnits="userSpaceOnUse" x="0" y="17" width="23" height="39">
<path d="M10.2467 55.1013C8.09962 55.1013 6.08712 54.761 4.20695 54.0853C2.32678 53.4096 0.926301 52.8081 0 52.2854V49.3177C0.585555 49.6296 1.40158 49.9969 2.45139 50.4113C3.5012 50.8257 4.64584 51.1918 5.88973 51.5049C7.13362 51.8169 8.31907 51.9734 9.44166 51.9734C12.0276 51.9734 13.8824 51.3483 15.0028 50.0993C16.1221 48.8491 16.6856 47.5719 16.6856 46.2711C16.6856 44.7089 16.1474 43.3811 15.0756 42.2874C14.0037 41.1938 12.6749 40.1885 11.088 39.2773L6.29554 36.3461C4.68554 35.3031 3.34351 34.0682 2.27054 32.6356C1.19868 31.2029 0.658335 29.4183 0.658335 27.2817C0.658335 25.8761 0.988055 24.4576 1.64639 23.0214C2.30473 21.5864 3.3799 20.3809 4.86859 19.3897C6.35729 18.3985 8.36979 17.9053 10.9072 17.9053C13.4942 17.9053 15.6302 18.1525 17.313 18.6481C18.9958 19.1437 20.2507 19.5734 21.0811 19.9371L20.3489 25.0944C18.3959 23.9502 16.5444 23.0638 14.7855 22.4387C13.0267 21.8148 11.5413 21.3968 10.3227 21.1897C9.00497 21.1897 7.95516 21.7088 7.17553 22.7518C6.39699 23.7936 6.00552 24.8872 6.00552 26.0327C6.00552 27.543 6.56571 28.832 7.6883 29.9021C8.81089 30.971 10.2014 31.9716 11.8622 32.9087L16.8035 35.8764C18.4389 36.9194 19.814 38.1425 20.9399 39.5481C22.0658 40.9537 22.6227 42.7265 22.6227 44.862C22.6227 47.6743 21.5619 50.0864 19.438 52.0912C17.313 54.0948 14.2507 55.0977 10.2522 55.0977" fill="white"/>
</mask>
<g mask="url(#mask1_443_1344)">
<path d="M0 17.9053H22.701V55.1578H0V17.9053Z" fill="white"/>
</g>
</g>
<mask id="mask2_443_1344" style="mask-type:luminance" maskUnits="userSpaceOnUse" x="27" y="17" width="30" height="39">
<path d="M27.0825 17.9102H56.2445V55.1615H27.0825V17.9102Z" fill="white"/>
</mask>
<g mask="url(#mask2_443_1344)">
<mask id="mask3_443_1344" style="mask-type:luminance" maskUnits="userSpaceOnUse" x="27" y="17" width="30" height="39">
<path d="M33.1592 32.5995H50.2859C50.1392 30.2557 49.6639 28.3545 48.8589 26.8947C48.0539 25.4338 47.1034 24.3285 46.005 23.575C44.9078 22.8205 43.8106 22.2978 42.71 22.0129C41.6095 21.7268 40.6975 21.5832 39.9664 21.5832C38.3057 22.4155 36.8534 23.8093 35.6095 25.7623C34.3656 27.7141 33.5474 29.9943 33.1592 32.5995ZM42.9659 55.1005C39.9411 55.1005 37.2195 54.4247 34.8045 53.0698C32.3906 51.7148 30.4961 49.7383 29.132 47.1332C27.7668 44.5292 27.0831 41.3508 27.0831 37.5978C27.0831 33.2752 27.8628 29.6553 29.4242 26.7382C30.9857 23.8211 33.0346 21.6185 35.5731 20.1353C38.1116 18.6508 40.8189 17.9092 43.6981 17.9092C45.9918 17.9092 48.0771 18.5484 49.9562 19.8221C51.8363 21.0959 53.3482 23.0006 54.4961 25.5268C55.6441 28.0543 56.2153 31.1939 56.2153 34.9421H32.8659C32.8659 39.0046 33.4625 42.1972 34.6589 44.5139C35.8543 46.8306 37.4136 48.4587 39.3445 49.3993C41.2754 50.3387 43.2846 50.8049 45.3831 50.8049C47.2864 50.8049 48.9692 50.5977 50.4325 50.1798C51.8959 49.7619 53.2379 49.2698 54.4597 48.6953V51.4299C52.9457 52.367 51.2144 53.2146 49.2614 53.968C47.3085 54.7226 45.2089 55.1005 42.9659 55.1005Z" fill="white"/>
</mask>
<g mask="url(#mask3_443_1344)">
<path d="M27.0831 17.9092H56.1624V55.1605H27.0831V17.9092Z" fill="white"/>
</g>
</g>
<mask id="mask4_443_1344" style="mask-type:luminance" maskUnits="userSpaceOnUse" x="61" y="17" width="30" height="39">
<path d="M61.4104 17.9102H90.6782V55.1615H61.4104V17.9102Z" fill="white"/>
</mask>
<g mask="url(#mask4_443_1344)">
<mask id="mask5_443_1344" style="mask-type:luminance" maskUnits="userSpaceOnUse" x="61" y="17" width="30" height="39">
<path d="M67.4865 32.5995H84.6131C84.4676 30.2557 83.9912 28.3545 83.1862 26.8947C82.3823 25.4338 81.4306 24.3285 80.3334 23.575C79.2351 22.8205 78.1379 22.2978 77.0406 22.0129C75.9434 21.7268 75.0281 21.5832 74.297 21.5832C72.633 22.4155 71.1818 23.8093 69.9379 25.7623C68.694 27.7141 67.8747 29.9943 67.4865 32.5995ZM77.2943 55.1005C74.2683 55.1005 71.5468 54.4247 69.1329 53.0698C66.7179 51.7148 64.8245 49.7383 63.4593 47.1332C62.0941 44.5292 61.4104 41.3508 61.4104 37.5978C61.4104 33.2752 62.19 29.6553 63.7515 26.7382C65.3141 23.8211 67.363 21.6185 69.9004 20.1353C72.4389 18.6508 75.1461 17.9092 78.0254 17.9092C80.3191 17.9092 82.4044 18.5484 84.2845 19.8221C86.1636 21.0959 87.6754 23.0006 88.8234 25.5268C89.9713 28.0543 90.5426 31.1939 90.5426 34.9421H67.1932C67.1932 39.0046 67.7897 42.1972 68.9862 44.5139C70.1827 46.8306 71.7409 48.4587 73.6718 49.3993C75.6027 50.3387 77.6118 50.8049 79.7115 50.8049C81.6137 50.8049 83.2965 50.5977 84.7631 50.1798C86.2287 49.7619 87.5685 49.2698 88.7892 48.6953V51.4299C87.2752 52.367 85.545 53.2146 83.592 53.968C81.6391 54.7226 79.5394 55.1005 77.2965 55.1005" fill="white"/>
</mask>
<g mask="url(#mask5_443_1344)">
<path d="M61.4104 17.9092H90.4907V55.1605H61.4104V17.9092Z" fill="white"/>
</g>
</g>
<mask id="mask6_443_1344" style="mask-type:luminance" maskUnits="userSpaceOnUse" x="99" y="0" width="7" height="55">
<path d="M99.3247 0.79834H105.474V54.1655H99.3247V0.79834Z" fill="white"/>
</mask>
<g mask="url(#mask6_443_1344)">
<path d="M97.9175 -0.70459H131.313V55.7739H97.9175V-0.70459Z" fill="white"/>
</g>
<mask id="mask7_443_1344" style="mask-type:luminance" maskUnits="userSpaceOnUse" x="106" y="16" width="24" height="39">
<path d="M106.735 16.3213H130V54.3755H106.735V16.3213Z" fill="white"/>
</mask>
<g mask="url(#mask7_443_1344)">
<mask id="mask8_443_1344" style="mask-type:luminance" maskUnits="userSpaceOnUse" x="106" y="16" width="24" height="39">
<path d="M125.271 16.3916L112.957 31.8883L122.143 44.5891C125.21 48.8882 127.847 52.0278 129.991 53.9443C129.166 54.2033 128.339 54.3351 127.523 54.3351C124.078 54.3351 120.305 51.7241 116.306 46.5785L106.747 32.8795L111.969 26.6215C116.509 21.0427 117.035 19.2816 117.035 18.4435C117.035 17.8407 116.765 17.1697 116.194 16.3916H125.271Z" fill="white"/>
</mask>
<g mask="url(#mask8_443_1344)">
<path d="M97.9178 -0.70459H131.313V55.7739H97.9178V-0.70459Z" fill="white"/>
</g>
</g>
</svg>
