<svg width="88" height="51" viewBox="0 0 88 51" fill="none" xmlns="http://www.w3.org/2000/svg">
<g clip-path="url(#clip0_1_521)">
<mask id="mask0_1_521" style="mask-type:luminance" maskUnits="userSpaceOnUse" x="-1" y="11" width="17" height="26">
<path d="M-0.5 11.6436H15.0067V36.9978H-0.5V11.6436Z" fill="white"/>
</mask>
<g mask="url(#mask0_1_521)">
<mask id="mask1_1_521" style="mask-type:luminance" maskUnits="userSpaceOnUse" x="-1" y="11" width="16" height="26">
<path d="M6.51502 36.9593C5.04512 36.9593 3.66734 36.7278 2.38014 36.2679C1.09295 35.808 0.13416 35.3986 -0.5 35.0428V33.023C-0.0991204 33.2353 0.459544 33.4853 1.17826 33.7673C1.89697 34.0493 2.68061 34.2985 3.5322 34.5116C4.38379 34.7239 5.19536 34.8305 5.9639 34.8305C7.73426 34.8305 9.00409 34.4051 9.77112 33.555C10.5374 32.7041 10.9232 31.8348 10.9232 30.9495C10.9232 29.8863 10.5548 28.9825 9.82095 28.2382C9.08714 27.4938 8.17742 26.8096 7.09104 26.1895L3.81002 24.1945C2.70779 23.4846 1.78901 22.6441 1.05445 21.6691C0.320633 20.694 -0.0492936 19.4794 -0.0492936 18.0252C-0.0492936 17.0685 0.176437 16.1031 0.627144 15.1256C1.07785 14.1489 1.81393 13.3285 2.83311 12.6539C3.8523 11.9793 5.23009 11.6436 6.96723 11.6436C8.73835 11.6436 10.2007 11.8118 11.3527 12.1491C12.5048 12.4864 13.3639 12.7789 13.9324 13.0264L13.4311 16.5365C12.0941 15.7578 10.8265 15.1544 9.6224 14.729C8.41825 14.3044 7.40133 14.0199 6.56711 13.8789C5.66494 13.8789 4.94622 14.2323 4.41247 14.9421C3.87948 15.6512 3.61147 16.3955 3.61147 17.1751C3.61147 18.203 3.99499 19.0804 4.76353 19.8087C5.53207 20.5362 6.48406 21.2172 7.62102 21.8549L11.004 23.8748C12.1236 24.5847 13.065 25.4171 13.8358 26.3738C14.6066 27.3304 14.9878 28.537 14.9878 29.9904C14.9878 31.9045 14.2616 33.5462 12.8075 34.9106C11.3527 36.2743 9.25625 36.9569 6.51879 36.9569" fill="white"/>
</mask>
<g mask="url(#mask1_1_521)">
<path d="M-0.5 11.6436H15.0414V36.9978H-0.5V11.6436Z" fill="#231F20"/>
</g>
</g>
<mask id="mask2_1_521" style="mask-type:luminance" maskUnits="userSpaceOnUse" x="18" y="11" width="21" height="26">
<path d="M18.041 11.6465H38.0057V36.9999H18.041V11.6465Z" fill="white"/>
</mask>
<g mask="url(#mask2_1_521)">
<mask id="mask3_1_521" style="mask-type:luminance" maskUnits="userSpaceOnUse" x="18" y="11" width="20" height="26">
<path d="M22.2012 21.6438H33.9263C33.8259 20.0486 33.5005 18.7546 32.9494 17.7611C32.3983 16.7668 31.7475 16.0145 30.9956 15.5017C30.2444 14.9881 29.4932 14.6324 28.7398 14.4385C27.9864 14.2438 27.362 14.1461 26.8615 14.1461C25.7245 14.7125 24.7303 15.6612 23.8787 16.9904C23.0271 18.3188 22.4669 19.8707 22.2012 21.6438ZM28.915 36.9581C26.8441 36.9581 24.9809 36.4982 23.3276 35.576C21.675 34.6538 20.378 33.3086 19.4441 31.5355C18.5095 29.7632 18.0414 27.6 18.0414 25.0457C18.0414 22.1037 18.5751 19.64 19.6441 17.6546C20.7132 15.6692 22.1159 14.1701 23.8538 13.1606C25.5917 12.1503 27.4451 11.6455 29.4162 11.6455C30.9865 11.6455 32.4142 12.0806 33.7006 12.9475C34.9878 13.8144 36.0228 15.1107 36.8087 16.8301C37.5946 18.5503 37.9857 20.6871 37.9857 23.2382H22.0004C22.0004 26.0032 22.4088 28.176 23.2279 29.7528C24.0463 31.3296 25.1138 32.4377 26.4357 33.0778C27.7576 33.7172 29.1331 34.0345 30.5698 34.0345C31.8729 34.0345 33.0249 33.8934 34.0267 33.609C35.0286 33.3246 35.9473 32.9897 36.7838 32.5987V34.4599C35.7473 35.0977 34.562 35.6745 33.225 36.1873C31.888 36.7009 30.4505 36.9581 28.915 36.9581Z" fill="white"/>
</mask>
<g mask="url(#mask3_1_521)">
<path d="M18.0414 11.6455H37.9495V36.9989H18.0414V11.6455Z" fill="#231F20"/>
</g>
</g>
<mask id="mask4_1_521" style="mask-type:luminance" maskUnits="userSpaceOnUse" x="41" y="11" width="21" height="26">
<path d="M41.5425 11.6465H61.5797V36.9999H41.5425V11.6465Z" fill="white"/>
</mask>
<g mask="url(#mask4_1_521)">
<mask id="mask5_1_521" style="mask-type:luminance" maskUnits="userSpaceOnUse" x="41" y="11" width="21" height="26">
<path d="M45.7023 21.6438H57.4274C57.3278 20.0486 57.0016 18.7546 56.4505 17.7611C55.9002 16.7668 55.2486 16.0145 54.4975 15.5017C53.7455 14.9881 52.9943 14.6324 52.2432 14.4385C51.492 14.2438 50.8654 14.1461 50.3649 14.1461C49.2256 14.7125 48.2321 15.6612 47.3805 16.9904C46.5289 18.3188 45.968 19.8707 45.7023 21.6438ZM52.4168 36.9581C50.3452 36.9581 48.482 36.4982 46.8294 35.576C45.1761 34.6538 43.8798 33.3086 42.9452 31.5355C42.0106 29.7632 41.5425 27.6 41.5425 25.0457C41.5425 22.1037 42.0762 19.64 43.1452 17.6546C44.215 15.6692 45.6177 14.1701 47.3549 13.1606C49.0928 12.1503 50.9462 11.6455 52.9173 11.6455C54.4876 11.6455 55.9153 12.0806 57.2025 12.9475C58.4889 13.8144 59.5239 15.1107 60.3098 16.8301C61.0957 18.5503 61.4868 20.6871 61.4868 23.2382H45.5014C45.5014 26.0032 45.9099 28.176 46.729 29.7528C47.5481 31.3296 48.6149 32.4377 49.9368 33.0778C51.2587 33.7172 52.6342 34.0345 54.0717 34.0345C55.374 34.0345 56.526 33.8934 57.5301 33.609C58.5334 33.3246 59.4507 32.9897 60.2864 32.5987V34.4599C59.2499 35.0977 58.0654 35.6745 56.7283 36.1873C55.3913 36.7009 53.9539 36.9581 52.4183 36.9581" fill="white"/>
</mask>
<g mask="url(#mask5_1_521)">
<path d="M41.5425 11.6455H61.4513V36.9989H41.5425V11.6455Z" fill="#231F20"/>
</g>
</g>
<mask id="mask6_1_521" style="mask-type:luminance" maskUnits="userSpaceOnUse" x="67" y="0" width="5" height="37">
<path d="M67.4991 0H71.7088V36.3219H67.4991V0Z" fill="white"/>
</mask>
<g mask="url(#mask6_1_521)">
<path d="M66.5358 -1.02246H89.3987V37.4171H66.5358V-1.02246Z" fill="#231F20"/>
</g>
<mask id="mask7_1_521" style="mask-type:luminance" maskUnits="userSpaceOnUse" x="72" y="10" width="17" height="27">
<path d="M72.5728 10.5664H88.5V36.4663H72.5728V10.5664Z" fill="white"/>
</mask>
<g mask="url(#mask7_1_521)">
<mask id="mask8_1_521" style="mask-type:luminance" maskUnits="userSpaceOnUse" x="72" y="10" width="17" height="27">
<path d="M85.2625 10.6162L76.832 21.1633L83.1207 29.8075C85.2202 32.7336 87.0261 34.8704 88.4937 36.1747C87.929 36.351 87.3628 36.4407 86.8041 36.4407C84.4457 36.4407 81.8622 34.6637 79.1248 31.1616L72.5801 21.8379L76.1555 17.5787C79.2637 13.7818 79.6238 12.5832 79.6238 12.0127C79.6238 11.6025 79.4388 11.1458 79.0478 10.6162H85.2625Z" fill="white"/>
</mask>
<g mask="url(#mask8_1_521)">
<path d="M66.5359 -1.02246H89.3989V37.4171H66.5359V-1.02246Z" fill="#231F20"/>
</g>
</g>
</g>
<defs>
<clipPath id="clip0_1_521">
<rect width="88" height="51" fill="white"/>
</clipPath>
</defs>
</svg>
