<svg width="20" height="20" viewBox="0 0 20 20" fill="none" xmlns="http://www.w3.org/2000/svg">
<g clip-path="url(#clip0_5_1716)">
<path d="M12.4945 18.4372V15.4447H14.5667C14.8313 15.4447 15.085 15.3396 15.2721 15.1526C15.4592 14.9655 15.5642 14.7118 15.5642 14.4472V12.297H16.7162C16.8442 12.297 16.9701 12.265 17.0825 12.204C17.1949 12.1429 17.2903 12.0546 17.3598 11.9473C17.4294 11.8399 17.471 11.7168 17.4808 11.5893C17.4906 11.4617 17.4683 11.3337 17.416 11.217C16.6622 9.53922 15.5612 7.47672 15.5612 7.47672V5.84247C15.562 5.62289 15.5154 5.40572 15.4247 5.20572C15.1206 4.38199 14.6227 3.64351 13.9732 3.05259C13.3236 2.46167 12.5415 2.03565 11.6927 1.81047C7.20925 0.634475 2.55025 3.77472 2.5165 8.40672C2.50794 9.38752 2.70892 10.3588 3.106 11.2557C3.50308 12.1525 4.0871 12.9543 4.819 13.6072V18.4372" stroke="#A0A0A0" stroke-width="1.5" stroke-linecap="round" stroke-linejoin="round"/>
<path d="M9.23798 10.3564C9.79016 10.3564 10.3197 10.137 10.7102 9.74656M9.23798 10.3564C8.6858 10.3564 8.15624 10.137 7.76579 9.74656M9.23798 10.3564V11.9179M10.7102 9.74656C11.1006 9.3561 11.32 8.82654 11.32 8.27436M10.7102 9.74656L11.8142 10.8506M11.32 8.27436C11.32 7.72218 11.1006 7.19261 10.7102 6.80216M11.32 8.27436H12.8815M10.7102 6.80216C10.3197 6.41171 9.79016 6.19236 9.23798 6.19236M10.7102 6.80216L11.8142 5.69811M9.23798 6.19236C8.6858 6.19236 8.15624 6.41171 7.76579 6.80216M9.23798 6.19236V4.63086M7.76579 6.80216C7.37534 7.19261 7.15598 7.72218 7.15598 8.27436M7.76579 6.80216L6.66173 5.69811M7.15598 8.27436C7.15598 8.82654 7.37534 9.3561 7.76579 9.74656M7.15598 8.27436H5.59448M7.76579 9.74656L6.66173 10.8506M8.89148 4.63086H9.58523M11.569 5.45286L12.0595 5.94336M12.8815 7.92711V8.62161M12.0595 10.6054L11.569 11.0959M9.58523 11.9179H8.89148M6.90698 11.0959L6.41648 10.6054M5.59448 8.62161V7.92711M6.41648 5.94336L6.90698 5.45286" stroke="#A0A0A0" stroke-width="1.5" stroke-linecap="round" stroke-linejoin="round"/>
</g>
<defs>
<clipPath id="clip0_5_1716">
<rect width="18" height="18" fill="white" transform="translate(1 1)"/>
</clipPath>
</defs>
</svg>
