<svg width="20" height="20" viewBox="0 0 20 20" fill="none" xmlns="http://www.w3.org/2000/svg">
<g clip-path="url(#clip0_5_1763)">
<path d="M18.4852 18.25L18.2354 18.5C17.3611 19.5 15.9872 20 14.7382 20C13.4892 20 12.1153 19.5 11.1161 18.5L1.4988 8.875C-0.4996 6.875 -0.4996 3.75 1.4988 1.75L1.7486 1.5C2.6229 0.5 3.9968 0 5.2458 0C6.4948 0 7.8687 0.5 8.8679 1.5L18.6101 11.25C20.4836 13.125 20.4836 16.375 18.4852 18.25ZM17.6109 12L12.7398 7.125L8.3683 11.625L3.6221 6.875C2.2482 5.5 2.2482 3.75 2.3731 2.5C0.8743 4 0.8743 6.375 2.3731 7.875L12.1153 17.625C12.7398 18.375 13.739 18.75 14.7382 18.75C15.7374 18.75 16.7366 18.375 17.486 17.625L17.7358 17.375C18.3603 16.75 18.735 15.75 18.735 14.75C18.735 13.75 18.3603 12.75 17.6109 12Z" fill="white"/>
</g>
<defs>
<clipPath id="clip0_5_1763">
<rect width="20" height="20" fill="white"/>
</clipPath>
</defs>
</svg>
